<svg width="18" height="17" viewBox="0 0 18 17" fill="none" xmlns="http://www.w3.org/2000/svg">
<path d="M6.75 8.32291C6.2325 8.32291 5.8125 8.71957 5.8125 9.20832C5.8125 9.69707 6.2325 10.0937 6.75 10.0937C7.2675 10.0937 7.6875 9.69707 7.6875 9.20832C7.6875 8.71957 7.2675 8.32291 6.75 8.32291ZM11.25 8.32291C10.7325 8.32291 10.3125 8.71957 10.3125 9.20832C10.3125 9.69707 10.7325 10.0937 11.25 10.0937C11.7675 10.0937 12.1875 9.69707 12.1875 9.20832C12.1875 8.71957 11.7675 8.32291 11.25 8.32291ZM9 1.41666C4.86 1.41666 1.5 4.58999 1.5 8.49999C1.5 12.41 4.86 15.5833 9 15.5833C13.14 15.5833 16.5 12.41 16.5 8.49999C16.5 4.58999 13.14 1.41666 9 1.41666ZM9 14.1667C5.6925 14.1667 3 11.6237 3 8.49999C3 8.29457 3.015 8.08916 3.0375 7.89082C4.8075 7.14707 6.21 5.77999 6.945 4.08707C8.3025 5.90041 10.5375 7.08332 13.065 7.08332C13.65 7.08332 14.2125 7.01957 14.7525 6.89916C14.91 7.40207 15 7.94041 15 8.49999C15 11.6237 12.3075 14.1667 9 14.1667Z" fill="white"/>
</svg>
