<svg viewBox="0 0 35 30" fill="none" xmlns="http://www.w3.org/2000/svg">
<path d="M28.3354 16.225C28.3938 15.825 28.4375 15.425 28.4375 15C28.4375 14.575 28.3938 14.175 28.3354 13.775L31.4125 11.7125C31.6896 11.525 31.7625 11.1875 31.5875 10.9125L28.6708 6.5875C28.5396 6.3875 28.2917 6.275 28.0292 6.275C27.9417 6.275 27.8542 6.2875 27.7813 6.3125L24.15 7.5625C23.3917 7.0625 22.575 6.65 21.6854 6.3375L21.1313 3.025C21.0875 2.725 20.7813 2.5 20.4167 2.5H14.5833C14.2188 2.5 13.9125 2.725 13.8688 3.025L13.3146 6.3375C12.425 6.65 11.6083 7.075 10.85 7.5625L7.21876 6.3125C7.13126 6.2875 7.04376 6.275 6.95626 6.275C6.70834 6.275 6.46043 6.3875 6.32918 6.5875L3.41251 10.9125C3.22293 11.1875 3.31043 11.525 3.58751 11.7125L6.66459 13.775C6.60626 14.175 6.56251 14.5875 6.56251 15C6.56251 15.4125 6.60626 15.825 6.66459 16.225L3.58751 18.2875C3.31043 18.475 3.23751 18.8125 3.41251 19.0875L6.32918 23.4125C6.46043 23.6125 6.70834 23.725 6.97084 23.725C7.05834 23.725 7.14584 23.7125 7.21876 23.6875L10.85 22.4375C11.6083 22.9375 12.425 23.35 13.3146 23.6625L13.8688 26.975C13.9125 27.275 14.2188 27.5 14.5833 27.5H20.4167C20.7813 27.5 21.0875 27.275 21.1313 26.975L21.6854 23.6625C22.575 23.35 23.3917 22.925 24.15 22.4375L27.7813 23.6875C27.8688 23.7125 27.9563 23.725 28.0438 23.725C28.2917 23.725 28.5396 23.6125 28.6708 23.4125L31.5875 19.0875C31.7625 18.8125 31.6896 18.475 31.4125 18.2875L28.3354 16.225ZM25.4479 14.0875C25.5063 14.475 25.5208 14.7375 25.5208 15C25.5208 15.2625 25.4917 15.5375 25.4479 15.9125L25.2438 17.325L26.5417 18.2L28.1167 19.25L27.0958 20.7625L25.2438 20.125L23.7271 19.6L22.4146 20.45C21.7875 20.85 21.1896 21.15 20.5917 21.3625L19.0458 21.9L18.8125 23.3125L18.5208 25H16.4792L16.2021 23.3125L15.9688 21.9L14.4229 21.3625C13.7958 21.1375 13.2125 20.85 12.6292 20.475L11.3021 19.6L9.75626 20.1375L7.90418 20.775L6.88334 19.2625L8.45834 18.2125L9.75626 17.3375L9.55209 15.925C9.50834 15.5375 9.47918 15.25 9.47918 15C9.47918 14.75 9.50834 14.4625 9.55209 14.0875L9.75626 12.675L8.45834 11.8L6.88334 10.75L7.90418 9.2375L9.75626 9.875L11.2729 10.4L12.5854 9.55C13.2125 9.15 13.8104 8.85 14.4083 8.6375L15.9542 8.1L16.1875 6.6875L16.4792 5H18.5063L18.7833 6.6875L19.0167 8.1L20.5625 8.6375C21.1896 8.8625 21.7729 9.15 22.3563 9.525L23.6833 10.4L25.2292 9.8625L27.0813 9.225L28.1021 10.7375L26.5417 11.8L25.2438 12.675L25.4479 14.0875ZM17.5 10C14.2771 10 11.6667 12.2375 11.6667 15C11.6667 17.7625 14.2771 20 17.5 20C20.7229 20 23.3333 17.7625 23.3333 15C23.3333 12.2375 20.7229 10 17.5 10ZM17.5 17.5C15.8958 17.5 14.5833 16.375 14.5833 15C14.5833 13.625 15.8958 12.5 17.5 12.5C19.1042 12.5 20.4167 13.625 20.4167 15C20.4167 16.375 19.1042 17.5 17.5 17.5Z" fill="white"/>
</svg>
