<svg viewBox="0 0 74 56" fill="none" xmlns="http://www.w3.org/2000/svg">
<path d="M59.0754 34.1914C61.0383 35.3831 61.4415 36.3628 60.4046 38.0401C60.0751 38.5731 59.2587 38.8888 58.6109 39.0398C57.8939 39.2069 57.1149 39.0713 56.17 38.9502C50.6532 38.8186 45.3293 38.7996 40.0053 38.8042C39.7445 38.8044 39.4839 39.0115 39.2232 39.1222C38.6255 39.8942 38.3809 40.6962 39.2085 41.7166C42.0932 41.861 44.8086 41.864 47.524 41.8669C48.1978 41.8981 48.9707 41.7114 49.5275 41.9996C51.57 43.0567 51.4314 45.3463 49.4167 46.2037C47.2017 46.2026 45.2087 46.1974 43.2169 46.2449C42.0393 46.273 40.8635 46.3845 39.6869 46.4584C38.4802 47.8086 38.7734 48.9621 40.4607 49.4081C40.9655 49.5416 41.4947 49.591 42.0159 49.627C42.5414 49.6633 43.0708 49.635 43.646 49.635C41.0423 53.8986 28.1537 57.0747 22.06 55.5825C7.7389 52.0754 2.10809 41.0998 0.717308 33.0516C-0.651675 25.1296 1.07067 17.6598 5.57598 11.123C9.03725 6.10108 13.8625 2.97801 19.355 1.10572C28.818 -2.12007 40.2993 2.28395 44.1285 6.97117C42.5772 6.97117 41.1431 6.97117 39.6385 6.97117C39.3815 7.96638 39.156 8.83938 38.8814 9.90291C41.5922 9.90291 44.1662 9.87034 46.7392 9.91141C49.7459 9.95941 49.0472 9.41215 49.9158 12.458C49.9954 13.2503 50.0991 13.8102 50.2028 14.37C50.2028 14.37 50.1849 14.3612 50.1292 14.4749C50.124 14.6637 50.1746 14.7388 50.2251 14.8139C50.2251 14.8139 50.2246 14.7878 50.1158 14.7377C46.0681 14.7181 42.1292 14.7402 38.1905 14.7894C37.6795 14.7957 37.17 14.9416 36.6598 15.0228C36.6265 15.8331 36.5932 16.6434 36.6744 17.6472C39.1169 17.8521 41.445 17.8634 43.8976 17.8967C48.6617 17.9343 53.3013 17.9501 57.9408 17.9658C60.0492 19.2204 60.0039 21.2712 57.7064 22.4766C52.5452 22.4679 47.6021 22.4753 42.6592 22.5118C42.3136 22.5144 41.9693 22.7322 41.6244 22.8499C41.6141 23.4563 41.6038 24.0627 41.4113 24.763C41.0607 25.2018 40.8925 25.5466 40.6834 25.9749C43.1939 25.9749 45.6311 25.9749 48.0311 26.0615C46.2754 26.8689 46.8446 28.1985 47.3528 29.2655C46.612 29.6282 46.0588 29.899 45.5057 30.1699C45.7445 30.4661 45.9833 30.7624 46.2832 31.0659C46.3443 31.0732 46.46 31.1177 46.46 31.1177C46.46 31.2114 46.46 31.3051 46.46 31.3987C46.4595 34.4919 46.7931 34.758 49.9354 34.0761C53.1102 34.154 56.0928 34.1727 59.0754 34.1914ZM21.0124 17.4307C21.4045 19.0051 21.7708 20.5875 22.1984 22.1508C22.4555 23.0907 23.0551 23.3091 23.7975 22.7181C24.6039 22.0762 25.3647 21.3692 26.2564 20.594C24.1498 17.4786 22.1235 14.4819 20.0971 11.4851C20.0412 11.5042 19.9853 11.5233 19.9294 11.5424C20.2872 13.4219 20.6451 15.3014 21.0124 17.4307ZM28.1871 25.1814C27.9252 25.141 27.647 25.1476 27.4043 25.052C26.2443 24.595 25.3423 25.1511 24.6231 25.9846C23.8185 26.9173 23.6824 28.0362 24.2786 29.2077C24.831 30.2933 25.5537 31.0824 26.8088 31.065C27.8683 31.0502 29.2372 29.9722 29.6184 28.8507C29.9649 27.8313 29.3697 26.1974 28.1871 25.1814ZM13.0102 10.5022C12.7453 10.5053 12.4601 10.4407 12.219 10.5231C11.0343 10.9278 11.2744 12.0427 11.4296 12.8781C11.5069 13.2945 12.4478 13.953 12.6951 13.8268C13.3525 13.4912 14.0769 12.8792 14.3112 12.1962C14.4382 11.8259 13.6191 11.0864 13.0102 10.5022ZM13.9971 44.9192C14.1872 44.5636 14.3773 44.208 14.5585 43.8689C13.5982 42.5016 12.402 41.9887 11.8392 42.8325C11.4706 43.3853 11.3295 44.5481 11.6351 45.0777C12.1644 45.9952 13.1097 45.9161 13.9971 44.9192ZM27.1217 4.41959C26.9071 4.46919 26.5747 4.44485 26.4993 4.58168C26.2279 5.07351 25.8117 5.65956 25.8836 6.13561C25.9774 6.75735 26.3947 7.42449 26.8592 7.82851C27.0282 7.97558 27.8104 7.51724 28.177 7.17137C29.0926 6.30754 28.5871 4.76006 27.1217 4.41959ZM4.39608 28.0423C4.36048 28.8724 4.5272 29.7069 5.46517 29.5782C6.50777 29.4351 7.41657 28.7805 7.07248 27.4645C6.93996 26.9577 6.25472 26.3869 5.73753 26.2712C4.72481 26.0446 4.33105 26.7737 4.39608 28.0423ZM26.1104 48.6079C26.1104 49.4924 26.1104 50.3769 26.1104 51.4556C27.0029 51.2721 27.7389 51.1208 28.4707 50.9704C28.4707 50.0437 28.4707 49.2505 28.4707 48.3861C27.6794 48.3861 26.9214 48.3861 26.1104 48.6079Z" fill="#38BDF8"/>
<path d="M39.3467 39.096C39.4838 39.0115 39.7445 38.8044 40.0053 38.8042C45.3292 38.7996 50.6532 38.8186 56.0486 38.9294C50.5702 39.0405 45.0202 39.0551 39.3467 39.096Z" fill="#38BDF8"/>
<path d="M71.6074 25.8701C66.6093 25.9775 61.613 25.9478 56.6167 25.9311C53.8502 25.9218 51.0835 25.9342 48.1925 25.9558C45.6309 25.9749 43.1938 25.9749 40.6833 25.9749C40.8923 25.5466 41.0606 25.2018 41.3199 24.8205C41.1547 25.7163 41.7316 25.6458 42.2947 25.6435C44.6608 25.6335 47.027 25.6387 49.3932 25.6388C56.3577 25.6391 63.3223 25.6379 70.2869 25.6443C70.7276 25.6447 71.1683 25.7057 71.6074 25.8701Z" fill="#38BDF8"/>
<path d="M36.7756 15.0347C37.17 14.9415 37.6795 14.7957 38.1906 14.7894C42.1292 14.7402 46.0681 14.7181 50.128 14.7377C49.9359 14.8807 49.6228 15.0536 49.3093 15.0545C45.1701 15.066 41.0307 15.0533 36.7756 15.0347Z" fill="#38BDF8"/>
<path d="M41.748 22.8189C41.9692 22.7322 42.3135 22.5144 42.6592 22.5118C47.602 22.4753 52.5451 22.4679 57.6114 22.4881C57.3329 22.6086 56.9315 22.7675 56.5295 22.7691C51.6436 22.7888 46.7576 22.7854 41.748 22.8189Z" fill="#38BDF8"/>
<path d="M59.018 34.0818C56.0928 34.1727 53.1102 34.154 50.0461 34.0555C52.9633 33.9744 55.962 33.9733 59.018 34.0818Z" fill="#38BDF8"/>
<path d="M57.9289 17.8377C53.3011 17.95 48.6616 17.9343 43.8961 17.8499C43.7702 17.7813 43.7702 17.6879 43.7702 17.6879C48.4858 17.6951 53.2015 17.7023 57.9289 17.8377Z" fill="#38BDF8"/>
<path d="M39.8183 46.4722C40.8634 46.3844 42.0392 46.273 43.2167 46.2449C45.2086 46.1974 47.2016 46.2026 49.3214 46.2039C49.0919 46.3137 48.7356 46.482 48.3783 46.4843C45.5689 46.5028 42.7593 46.4895 39.8183 46.4722Z" fill="#38BDF8"/>
<path d="M21.0076 17.3058C20.6451 15.3013 20.2872 13.4219 19.9293 11.5424C19.9852 11.5233 20.0411 11.5042 20.0971 11.4851C22.1234 14.4819 24.1498 17.4786 26.2564 20.594C25.3647 21.3691 24.6038 22.0761 23.7974 22.7181C23.055 23.3091 22.4554 23.0907 22.1983 22.1508C21.7707 20.5875 21.4044 19.0051 21.0076 17.3058Z" fill="white"/>
<path d="M47.4558 41.7701C44.8085 41.864 42.0931 41.861 39.2944 41.775C41.9367 41.6857 44.6622 41.6795 47.4558 41.7701Z" fill="#38BDF8"/>
<path d="M43.6468 17.6672C43.7702 17.6879 43.7702 17.7814 43.7716 17.8281C41.4449 17.8634 39.1168 17.852 36.7177 17.7566C38.9388 17.6638 41.231 17.6552 43.6468 17.6672Z" fill="#38BDF8"/>
<path d="M28.2628 25.2593C29.3697 26.1974 29.9649 27.8313 29.6184 28.8507C29.2372 29.9722 27.8683 31.0502 26.8088 31.065C25.5538 31.0824 24.831 30.2933 24.2786 29.2077C23.6825 28.0362 23.8185 26.9173 24.6231 25.9846C25.3423 25.1511 26.2443 24.595 27.4043 25.052C27.6471 25.1476 27.9252 25.1409 28.2628 25.2593Z" fill="white"/>
<path d="M27.2023 4.3573C28.5871 4.76005 29.0925 6.30752 28.1769 7.17135C27.8103 7.51722 27.0282 7.97556 26.8591 7.8285C26.3946 7.42447 25.9774 6.75734 25.8835 6.1356C25.8117 5.65954 26.2279 5.0735 26.4992 4.58166C26.5747 4.44483 26.9071 4.46917 27.2023 4.3573Z" fill="white"/>
<path d="M13.9309 45.0034C13.1096 45.916 12.1643 45.9951 11.635 45.0777C11.3294 44.5481 11.4705 43.3853 11.8391 42.8325C12.4019 41.9887 13.5981 42.5016 14.5584 43.8689C14.3772 44.208 14.1871 44.5636 13.9309 45.0034Z" fill="white"/>
<path d="M13.1184 10.5078C13.619 11.0864 14.4382 11.8259 14.3111 12.1962C14.0768 12.8792 13.3525 13.4912 12.695 13.8268C12.4478 13.953 11.5068 13.2945 11.4295 12.8781C11.2743 12.0427 11.0342 10.9278 12.2189 10.5231C12.46 10.4407 12.7453 10.5053 13.1184 10.5078Z" fill="white"/>
<path d="M26.1368 48.497C26.9213 48.3861 27.6793 48.3861 28.4706 48.3861C28.4706 49.2505 28.4706 50.0437 28.4706 50.9704C27.7388 51.1208 27.0027 51.2721 26.1103 51.4556C26.1103 50.3769 26.1103 49.4924 26.1368 48.497Z" fill="white"/>
<path d="M4.39754 27.9226C4.33098 26.7737 4.72474 26.0446 5.73745 26.2712C6.25465 26.3869 6.93988 26.9577 7.0724 27.4645C7.41649 28.7805 6.50769 29.4351 5.4651 29.5782C4.52713 29.7069 4.36041 28.8725 4.39754 27.9226Z" fill="white"/>
<path d="M56.8694 10.2099C57.4849 10.2066 57.9772 10.2295 58.4659 10.1951C59.761 10.104 60.8039 10.9651 60.9274 12.2543C61.0473 13.5047 60.0147 14.9933 58.8479 15.0502C57.2007 15.1306 55.5453 15.1238 53.8975 15.0515C52.8335 15.0049 51.4682 13.3456 51.548 12.3642C51.6665 10.9065 52.6545 10.1215 54.2019 10.1998C55.0477 10.2426 55.8968 10.2091 56.8694 10.2099Z" fill="#38BDF8"/>
<path d="M46.2831 31.0659C46.6605 30.9578 47.0989 30.7701 47.5377 30.7691C55.4968 30.7513 63.4558 30.756 71.5382 30.7872C71.2119 30.9026 70.7624 31.0588 70.3126 31.0597C62.4445 31.0757 54.5764 31.0727 46.5841 31.0958C46.4599 31.1177 46.3442 31.0732 46.2831 31.0659Z" fill="#38BDF8"/>
<path d="M67.3454 41.7764C69.2125 42.9894 69.6132 43.9432 68.6625 45.3588C68.2888 45.9154 67.4936 46.3674 66.8437 46.4501C65.5252 46.618 64.1716 46.5655 62.8385 46.4864C61.1848 46.3882 60.0896 44.1009 60.9817 42.6327C61.2033 42.2679 61.6518 41.8526 62.0168 41.8292C63.7603 41.7173 65.5109 41.7323 67.3454 41.7764Z" fill="#38BDF8"/>
<path d="M46.222 31.0586C45.9832 30.7624 45.7444 30.4661 45.5056 30.1698C46.0587 29.899 46.6118 29.6282 47.3527 29.2655C46.8445 28.1985 46.2753 26.8689 48.1554 26.0425C51.0836 25.9342 53.8502 25.9218 56.6167 25.931C61.613 25.9478 66.6093 25.9775 71.6056 26.0018C72.2461 26.6762 73.2139 27.2412 73.4515 28.0501C73.8241 29.3187 73.0889 30.3294 71.6365 30.771C63.4558 30.7559 55.4967 30.7513 47.5377 30.7691C47.0989 30.7701 46.6605 30.9578 46.222 31.0586Z" fill="#38BDF8"/>
</svg>
