<svg viewBox="0 0 24 24" fill="none" xmlns="http://www.w3.org/2000/svg">
<path fill-rule="evenodd" clip-rule="evenodd" d="M4.8 0C2.14903 0 0 2.14903 0 4.8V19.2C0 21.8509 2.14903 24 4.8 24H19.2C21.8509 24 24 21.8509 24 19.2V4.8C24 2.14903 21.8509 0 19.2 0H4.8ZM2.4 4.8C2.4 3.47452 3.47452 2.4 4.8 2.4H19.2C20.5255 2.4 21.6 3.47452 21.6 4.8V19.2C21.6 20.5255 20.5255 21.6 19.2 21.6H4.8C3.47452 21.6 2.4 20.5255 2.4 19.2V4.8ZM8.4 10.8C8.4 10.1372 7.86274 9.6 7.2 9.6C6.53726 9.6 6 10.1372 6 10.8V18C6 18.6628 6.53726 19.2 7.2 19.2C7.86274 19.2 8.4 18.6628 8.4 18V10.8ZM9 6.6C9 7.59412 8.19412 8.4 7.2 8.4C6.20588 8.4 5.4 7.59412 5.4 6.6C5.4 5.60588 6.20588 4.8 7.2 4.8C8.19412 4.8 9 5.60588 9 6.6ZM12 9.6C12.4074 9.6 12.7674 9.80304 12.9844 10.1135C13.5995 9.78024 14.2843 9.6 15 9.6C17.5913 9.6 19.2 11.911 19.2 13.8857V13.8948V13.9038V13.9129V13.922V13.9312V13.9404V13.9495V13.9588V13.968V13.9772V13.9866V13.9958V14.0052V14.0146V14.0239V14.0333V14.0426V14.0521V14.0616V14.071V14.0806V14.09V14.0995V14.1091V14.1186V14.1282V14.1378V14.1475V14.1571V14.1668V14.1764V14.1862V14.1959V14.2056V14.2154V14.2252V14.235V14.2447V14.2546V14.2644V14.2744V14.2842V14.294V14.304V14.314V14.3238V14.3338V14.3438V14.3538V14.3638V14.3738V14.3839V14.3939V14.404V14.414V14.4241V14.4343V14.4444V14.4546V14.4647V14.4749V14.4851V14.4953V14.5055V14.5157V14.5259V14.5362V14.5464V14.5567V14.567V14.5774V14.5876V14.598V14.6083V14.6186V14.629V14.6394V14.6497V14.6602V14.6705V14.6809V14.6914V14.7018V14.7122V14.7227V14.7331V14.7437V14.7541V14.7647V14.7751V14.7857V14.7961V14.8067V14.8172V14.8278V14.8384V14.8489V14.8595V14.87V14.8806V14.8912V14.9018V14.9124V14.9231V14.9336V14.9443V14.9549V14.9656V14.9762V14.9869V14.9975V15.0082V15.0188V15.0295V15.0402V15.0509V15.0616V15.0722V15.083V15.0937V15.1044V15.1151V15.1259V15.1366V15.1472V15.158V15.1687V15.1795V15.1902V15.2009V15.2117V15.2225V15.2332V15.244V15.2546V15.2654V15.2762V15.2869V15.2977V15.3084V15.3192V15.33V15.3407V15.3515V15.3623V15.373V15.3838V15.3946V15.4054V15.416V15.4268V15.4376V15.4483V15.4591V15.4699V15.4806V15.4914V15.5021V15.5129V15.5236V15.5344V15.5452V15.5558V15.5666V15.5773V15.588V15.5988V15.6095V15.6203V15.631V15.6416V15.6523V15.6631V15.6738V15.6845V15.6952V15.7058V15.7165V15.7272V15.7379V15.7486V15.7592V15.7699V15.7805V15.7912V15.8018V15.8124V15.8231V15.8336V15.8443V15.8549V15.8656V15.8761V15.8867V15.8972V15.9078V15.9184V15.9289V15.9395V15.95V15.9606V15.971V15.9816V15.992V16.0026V16.013V16.0235V16.0339V16.0444V16.0548V16.0652V16.0757V16.0861V16.0966V16.1069V16.1173V16.1276V16.138V16.1484V16.1587V16.169V16.1792V16.1896V16.1999V16.2102V16.2204V16.2306V16.2409V16.2511V16.2613V16.2715V16.2817V16.2918V16.302V16.3121V16.3223V16.3324V16.3424V16.3525V16.3626V16.3727V16.3826V16.3927V16.4027V16.4126V16.4226V16.4326V16.4425V16.4525V16.4623V16.4723V16.4821V16.492V16.5018V16.5116V16.5215V16.5312V16.541V16.5508V16.5605V16.5702V16.5799V16.5895V16.5992V16.6088V16.6184V16.628V16.6376V16.6472V16.6567V16.6662V16.6758V16.6853V16.6946V16.7041V16.7136V16.723V16.7323V16.7417V16.751V16.7603V16.7696V16.7789V16.7881V16.7974V16.8066V16.8157V16.825V16.8341V16.8432V16.8522V16.8613V16.8703V16.8793V16.8883V16.8973V16.9063V16.9152V16.9241V16.933V16.9418V16.9506V16.9595V16.9682V16.977V16.9856V16.9944V17.003V17.0117V17.0203V17.029V17.0375V17.046V17.0545V17.063V17.0714V17.0798V17.0882V17.0966V17.105V17.1133V17.1216V17.1299V17.1382V17.1463V17.1545V17.1626V17.1708V17.1788V17.1869V17.1949V17.203V17.211V17.2189V17.2268V17.2346V17.2426V17.2504V17.2582V17.2658V17.2736V17.2813V17.289V17.2966V17.3042V17.3118V17.3194V17.3268V17.3342V17.3417V17.3491V17.3566V17.3639V17.3712V17.3784V17.3857V17.3929V17.4V17.4072V17.4143V17.4214V17.4284V17.4354V17.4424V17.4493V17.4562V17.463V17.4698V17.4767V17.4834V17.4901V17.4968V17.5034V17.51V17.5166V17.5231V17.5297V17.5361V17.5426V17.5489V17.5553V17.5616V17.5679V17.5741V17.5804V17.5865V17.5926V17.5987V17.6047V17.6107V17.6167V17.6226V17.6285V17.6344V17.6401V17.6459V17.6516V17.6573V17.6629V17.6686V17.6741V17.6796V17.6851V17.6905V17.6959V17.7013V17.7066V17.7119V17.7172V17.7223V17.7275V17.7325V17.7376V17.7426V17.7476V17.7526V17.7574V17.7623V17.7671V17.7718V17.7766V17.7812V17.7858V17.7904V17.7949V17.7994V17.8038V17.8082V17.8126V17.8169V17.8212V17.8254V17.8296V17.8337V17.8378V17.8418V17.8458V17.8498V17.8536V17.8574V17.8613V17.865V17.8687V17.8723V17.8759V17.8795V17.883V17.8865V17.89V17.8933V17.8966V17.8998V17.903V17.9063V17.9094V17.9124V17.9154V17.9184V17.9213V17.9242V17.927V17.9298V17.9326V17.9352V17.9377V17.9404V17.9429V17.9453V17.9477V17.9501V17.9524V17.9546V17.9568V17.959V17.9611V17.9632V17.9651V17.967V17.9689V17.9707V17.9725V17.9742V17.9759V17.9776V17.9791V17.9806V17.982V17.9834V17.9848V17.9861V17.9873V17.9896V17.9916V17.9935V17.9951V17.9965V17.9981V17.9995C19.2 18.6623 18.6628 19.2 18 19.2C17.3372 19.2 16.8 18.6628 16.8 18V17.9986V17.9971V17.9958V17.9944V17.9926V17.9906V17.9885V17.9861V17.9848V17.9834V17.982V17.9806V17.9791V17.9776V17.9759V17.9742V17.9725V17.9707V17.9689V17.967V17.9651V17.9632V17.9611V17.959V17.9568V17.9546V17.9524V17.9501V17.9477V17.9453V17.9429V17.9404V17.9377V17.9352V17.9326V17.9298V17.927V17.9242V17.9213V17.9184V17.9154V17.9124V17.9094V17.9063V17.903V17.8998V17.8966V17.8933V17.89V17.8865V17.883V17.8795V17.8759V17.8723V17.8687V17.865V17.8613V17.8574V17.8536V17.8498V17.8458V17.8418V17.8378V17.8337V17.8296V17.8254V17.8212V17.8169V17.8126V17.8082V17.8038V17.7994V17.7949V17.7904V17.7858V17.7812V17.7766V17.7718V17.7671V17.7623V17.7574V17.7526V17.7476V17.7426V17.7376V17.7325V17.7275V17.7223V17.7172V17.7119V17.7066V17.7013V17.6959V17.6905V17.6851V17.6796V17.6741V17.6686V17.6629V17.6573V17.6516V17.6459V17.6401V17.6344V17.6285V17.6226V17.6167V17.6107V17.6047V17.5987V17.5926V17.5865V17.5804V17.5741V17.5679V17.5616V17.5553V17.5489V17.5426V17.5361V17.5297V17.5231V17.5166V17.51V17.5034V17.4968V17.4901V17.4834V17.4767V17.4698V17.463V17.4562V17.4493V17.4424V17.4354V17.4284V17.4214V17.4143V17.4072V17.4V17.3929V17.3857V17.3784V17.3712V17.3639V17.3566V17.3491V17.3417V17.3342V17.3268V17.3194V17.3118V17.3042V17.2966V17.289V17.2813V17.2736V17.2658V17.2582V17.2504V17.2426V17.2346V17.2268V17.2189V17.211V17.203V17.1949V17.1869V17.1788V17.1708V17.1626V17.1545V17.1463V17.1382V17.1299V17.1216V17.1133V17.105V17.0966V17.0882V17.0798V17.0714V17.063V17.0545V17.046V17.0375V17.029V17.0203V17.0117V17.003V16.9944V16.9856V16.977V16.9682V16.9595V16.9506V16.9418V16.933V16.9241V16.9152V16.9063V16.8973V16.8883V16.8793V16.8703V16.8613V16.8522V16.8432V16.8341V16.825V16.8157V16.8066V16.7974V16.7881V16.7789V16.7696V16.7603V16.751V16.7417V16.7323V16.723V16.7136V16.7041V16.6946V16.6853V16.6758V16.6662V16.6567V16.6472V16.6376V16.628V16.6184V16.6088V16.5992V16.5895V16.5799V16.5702V16.5605V16.5508V16.541V16.5312V16.5215V16.5116V16.5018V16.492V16.4821V16.4723V16.4623V16.4525V16.4425V16.4326V16.4226V16.4126V16.4027V16.3927V16.3826V16.3727V16.3626V16.3525V16.3424V16.3324V16.3223V16.3121V16.302V16.2918V16.2817V16.2715V16.2613V16.2511V16.2409V16.2306V16.2204V16.2102V16.1999V16.1896V16.1792V16.169V16.1587V16.1484V16.138V16.1276V16.1173V16.1069V16.0966V16.0861V16.0757V16.0652V16.0548V16.0444V16.0339V16.0235V16.013V16.0026V15.992V15.9816V15.971V15.9606V15.95V15.9395V15.9289V15.9184V15.9078V15.8972V15.8867V15.8761V15.8656V15.8549V15.8443V15.8336V15.8231V15.8124V15.8018V15.7912V15.7805V15.7699V15.7592V15.7486V15.7379V15.7272V15.7165V15.7058V15.6952V15.6845V15.6738V15.6631V15.6523V15.6416V15.631V15.6203V15.6095V15.5988V15.588V15.5773V15.5666V15.5558V15.5452V15.5344V15.5236V15.5129V15.5021V15.4914V15.4806V15.4699V15.4591V15.4483V15.4376V15.4268V15.416V15.4054V15.3946V15.3838V15.373V15.3623V15.3515V15.3407V15.33V15.3192V15.3084V15.2977V15.2869V15.2762V15.2654V15.2546V15.244V15.2332V15.2225V15.2117V15.2009V15.1902V15.1795V15.1687V15.158V15.1472V15.1366V15.1259V15.1151V15.1044V15.0937V15.083V15.0722V15.0616V15.0509V15.0402V15.0295V15.0188V15.0082V14.9975V14.9869V14.9762V14.9656V14.9549V14.9443V14.9336V14.9231V14.9124V14.9018V14.8912V14.8806V14.87V14.8595V14.8489V14.8384V14.8278V14.8172V14.8067V14.7961V14.7857V14.7751V14.7647V14.7541V14.7437V14.7331V14.7227V14.7122V14.7018V14.6914V14.6809V14.6705V14.6602V14.6497V14.6394V14.629V14.6186V14.6083V14.598V14.5876V14.5774V14.567V14.5567V14.5464V14.5362V14.5259V14.5157V14.5055V14.4953V14.4851V14.4749V14.4647V14.4546V14.4444V14.4343V14.4241V14.414V14.404V14.3939V14.3839V14.3738V14.3638V14.3538V14.3438V14.3338V14.3238V14.314V14.304V14.294V14.2842V14.2744V14.2644V14.2546V14.2447V14.235V14.2252V14.2154V14.2056V14.1959V14.1862V14.1764V14.1668V14.1571V14.1475V14.1378V14.1282V14.1186V14.1091V14.0995V14.09V14.0806V14.071V14.0616V14.0521V14.0426V14.0333V14.0239V14.0146V14.0052V13.9958V13.9866V13.9772V13.968V13.9588V13.9495V13.9404V13.9312V13.922V13.9129V13.9038V13.8948V13.8857C16.8 12.9638 16.0087 12 15 12C14.3711 12 13.6769 12.3419 13.2 13.1557V13.159V13.1713V13.1837V13.196V13.2085V13.2209V13.2334V13.2458V13.2584V13.2709V13.2834V13.296V13.3086V13.3212V13.3338V13.3464V13.3591V13.3718V13.3844V13.3972V13.4099V13.4226V13.4354V13.4482V13.461V13.4738V13.4866V13.4995V13.5124V13.5252V13.538V13.551V13.564V13.5768V13.5898V13.6027V13.6157V13.6288V13.6417V13.6548V13.6678V13.6808V13.6939V13.707V13.7201V13.7332V13.7462V13.7594V13.7725V13.7857V13.7988V13.812V13.8252V13.8384V13.8516V13.8648V13.878V13.8913V13.9045V13.9177V13.931V13.9444V13.9576V13.9709V13.9842V13.9975V14.0108V14.0242V14.0375V14.0508V14.0642V14.0776V14.0909V14.1043V14.1176V14.1311V14.1445V14.1578V14.1713V14.1847V14.1982V14.2115V14.2249V14.2384V14.2518V14.2654V14.2788V14.2922V14.3057V14.3191V14.3326V14.3461V14.3596V14.373V14.3866V14.4V14.4136V14.427V14.4406V14.454V14.4674V14.481V14.4946V14.508V14.5216V14.535V14.5486V14.562V14.5756V14.5891V14.6026V14.6161V14.6296V14.6431V14.6567V14.6701V14.6837V14.6971V14.7107V14.7241V14.7377V14.7511V14.7647V14.7781V14.7917V14.8051V14.8187V14.8321V14.8457V14.8591V14.8726V14.886V14.8996V14.913V14.9264V14.9399V14.9533V14.9668V14.9802V14.9936V15.0071V15.0205V15.034V15.0474V15.0607V15.0742V15.0876V15.1009V15.1144V15.1277V15.1411V15.1544V15.1678V15.1811V15.1944V15.2078V15.2212V15.2344V15.2477V15.261V15.2743V15.2875V15.3008V15.314V15.3274V15.3406V15.3538V15.367V15.3802V15.3934V15.4066V15.4198V15.4328V15.446V15.4591V15.4723V15.4854V15.4985V15.5116V15.5246V15.5377V15.5507V15.5638V15.5767V15.5898V15.6028V15.6157V15.6287V15.6416V15.6546V15.6674V15.6804V15.6932V15.7061V15.7189V15.7318V15.7446V15.7574V15.7703V15.783V15.7957V15.8084V15.8212V15.8339V15.8466V15.8593V15.8719V15.8845V15.8971V15.9097V15.9223V15.9349V15.9474V15.9599V15.9725V15.985V15.9973V16.0098V16.0223V16.0346V16.047V16.0594V16.0717V16.084V16.0963V16.1086V16.1208V16.133V16.1453V16.1574V16.1696V16.1818V16.1939V16.2059V16.218V16.23V16.242V16.254V16.266V16.278V16.2899V16.3018V16.3136V16.3255V16.3373V16.3492V16.3609V16.3727V16.3843V16.3961V16.4077V16.4194V16.431V16.4425V16.4542V16.4657V16.4772V16.4886V16.5001V16.5115V16.5229V16.5343V16.5456V16.5569V16.5682V16.5794V16.5907V16.6019V16.613V16.6241V16.6352V16.6463V16.6573V16.6684V16.6793V16.6903V16.7012V16.712V16.723V16.7338V16.7446V16.7552V16.766V16.7767V16.7874V16.798V16.8085V16.8191V16.8296V16.8401V16.8505V16.861V16.8714V16.8817V16.892V16.9024V16.9126V16.9228V16.933V16.9432V16.9532V16.9633V16.9733V16.9832V16.9932V17.0032V17.0131V17.023V17.0327V17.0425V17.0522V17.062V17.0716V17.0812V17.0908V17.1004V17.1098V17.1193V17.1287V17.138V17.1474V17.1568V17.166V17.1752V17.1844V17.1936V17.2027V17.2117V17.2207V17.2297V17.2387V17.2476V17.2564V17.2652V17.274V17.2828V17.2914V17.3V17.3087V17.3172V17.3257V17.3341V17.3426V17.3509V17.3593V17.3676V17.3759V17.384V17.3922V17.4002V17.4084V17.4164V17.4244V17.4323V17.4402V17.448V17.4558V17.4635V17.4712V17.4788V17.4865V17.494V17.5015V17.509V17.5164V17.5237V17.531V17.5384V17.5456V17.5526V17.5598V17.5669V17.5739V17.5808V17.5878V17.5946V17.6015V17.6082V17.6149V17.6216V17.6282V17.6347V17.6413V17.6477V17.6542V17.6605V17.6668V17.673V17.6792V17.6854V17.6915V17.6975V17.7035V17.7094V17.7152V17.7211V17.7269V17.7326V17.7383V17.7438V17.7494V17.7548V17.7604V17.7658V17.771V17.7763V17.7815V17.7866V17.7918V17.7968V17.8018V17.8068V17.8116V17.8164V17.8212V17.8259V17.8306V17.8351V17.8397V17.8441V17.8486V17.8529V17.8572V17.8614V17.8656V17.8697V17.8738V17.8777V17.8817V17.8855V17.8894V17.8931V17.8968V17.9004V17.904V17.9075V17.911V17.9143V17.9176V17.9209V17.924V17.9272V17.9303V17.9333V17.9362V17.939V17.9419V17.9447V17.9473V17.95V17.9525V17.955V17.9574V17.9598V17.9621V17.9644V17.9665V17.9686V17.9706V17.9725V17.9744V17.9764V17.978V17.9797V17.9814V17.983V17.9845V17.986V17.9873V17.9886V17.9898V17.9921V17.994V17.9957V17.9971V17.9987V17.9999C13.2 18.6626 12.6628 19.2 12 19.2C11.3372 19.2 10.8 18.6628 10.8 18V17.9987V17.9971V17.9957V17.994V17.9921V17.9898V17.9886V17.9873V17.986V17.9845V17.983V17.9814V17.9797V17.978V17.9764V17.9744V17.9725V17.9706V17.9686V17.9665V17.9644V17.9621V17.9598V17.9574V17.955V17.9525V17.95V17.9473V17.9447V17.9419V17.939V17.9362V17.9333V17.9303V17.9272V17.924V17.9209V17.9176V17.9143V17.911V17.9075V17.904V17.9004V17.8968V17.8931V17.8894V17.8855V17.8817V17.8777V17.8738V17.8697V17.8656V17.8614V17.8572V17.8529V17.8486V17.8441V17.8397V17.8351V17.8306V17.8259V17.8212V17.8164V17.8116V17.8068V17.8018V17.7968V17.7918V17.7866V17.7815V17.7763V17.771V17.7658V17.7604V17.7548V17.7494V17.7438V17.7383V17.7326V17.7269V17.7211V17.7152V17.7094V17.7035V17.6975V17.6915V17.6854V17.6792V17.673V17.6668V17.6605V17.6542V17.6477V17.6413V17.6347V17.6282V17.6216V17.6149V17.6082V17.6015V17.5946V17.5878V17.5808V17.5739V17.5669V17.5598V17.5526V17.5456V17.5384V17.531V17.5237V17.5164V17.509V17.5015V17.494V17.4865V17.4788V17.4712V17.4635V17.4558V17.448V17.4402V17.4323V17.4244V17.4164V17.4084V17.4002V17.3922V17.384V17.3759V17.3676V17.3593V17.3509V17.3426V17.3341V17.3257V17.3172V17.3087V17.3V17.2914V17.2828V17.274V17.2652V17.2564V17.2476V17.2387V17.2297V17.2207V17.2117V17.2027V17.1936V17.1844V17.1752V17.166V17.1568V17.1474V17.138V17.1287V17.1193V17.1098V17.1004V17.0908V17.0812V17.0716V17.062V17.0522V17.0425V17.0327V17.023V17.0131V17.0032V16.9932V16.9832V16.9733V16.9633V16.9532V16.9432V16.933V16.9228V16.9126V16.9024V16.892V16.8817V16.8714V16.861V16.8505V16.8401V16.8296V16.8191V16.8085V16.798V16.7874V16.7767V16.766V16.7552V16.7446V16.7338V16.723V16.712V16.7012V16.6903V16.6793V16.6684V16.6573V16.6463V16.6352V16.6241V16.613V16.6019V16.5907V16.5794V16.5682V16.5569V16.5456V16.5343V16.5229V16.5115V16.5001V16.4886V16.4772V16.4657V16.4542V16.4425V16.431V16.4194V16.4077V16.3961V16.3843V16.3727V16.3609V16.3492V16.3373V16.3255V16.3136V16.3018V16.2899V16.278V16.266V16.254V16.242V16.23V16.218V16.2059V16.1939V16.1818V16.1696V16.1574V16.1453V16.133V16.1208V16.1086V16.0963V16.084V16.0717V16.0594V16.047V16.0346V16.0223V16.0098V15.9973V15.985V15.9725V15.9599V15.9474V15.9349V15.9223V15.9097V15.8971V15.8845V15.8719V15.8593V15.8466V15.8339V15.8212V15.8084V15.7957V15.783V15.7703V15.7574V15.7446V15.7318V15.7189V15.7061V15.6932V15.6804V15.6674V15.6546V15.6416V15.6287V15.6157V15.6028V15.5898V15.5767V15.5638V15.5507V15.5377V15.5246V15.5116V15.4985V15.4854V15.4723V15.4591V15.446V15.4328V15.4198V15.4066V15.3934V15.3802V15.367V15.3538V15.3406V15.3274V15.314V15.3008V15.2875V15.2743V15.261V15.2477V15.2344V15.2212V15.2078V15.1944V15.1811V15.1678V15.1544V15.1411V15.1277V15.1144V15.1009V15.0876V15.0742V15.0607V15.0474V15.034V15.0205V15.0071V14.9936V14.9802V14.9668V14.9533V14.9399V14.9264V14.913V14.8996V14.886V14.8726V14.8591V14.8457V14.8321V14.8187V14.8051V14.7917V14.7781V14.7647V14.7511V14.7377V14.7241V14.7107V14.6971V14.6837V14.6701V14.6567V14.6431V14.6296V14.6161V14.6026V14.5891V14.5756V14.562V14.5486V14.535V14.5216V14.508V14.4946V14.481V14.4674V14.454V14.4406V14.427V14.4136V14.4V14.3866V14.373V14.3596V14.3461V14.3326V14.3191V14.3057V14.2922V14.2788V14.2654V14.2518V14.2384V14.2249V14.2115V14.1982V14.1847V14.1713V14.1578V14.1445V14.1311V14.1176V14.1043V14.0909V14.0776V14.0642V14.0508V14.0375V14.0242V14.0108V13.9975V13.9842V13.9709V13.9576V13.9444V13.931V13.9177V13.9045V13.8913V13.878V13.8648V13.8516V13.8384V13.8252V13.812V13.7988V13.7857V13.7725V13.7594V13.7462V13.7332V13.7201V13.707V13.6939V13.6808V13.6678V13.6548V13.6417V13.6288V13.6157V13.6027V13.5898V13.5768V13.564V13.551V13.538V13.5252V13.5124V13.4995V13.4866V13.4738V13.461V13.4482V13.4354V13.4226V13.4099V13.3972V13.3844V13.3718V13.3591V13.3464V13.3338V13.3212V13.3086V13.296V13.2834V13.2709V13.2584V13.2458V13.2334V13.2209V13.2085V13.196V13.1837V13.1713V13.159V13.1466V13.1342V13.1219V13.1096V13.0974V13.0852V13.0729V13.0608V13.0486V13.0364V13.0243V13.0122V13.0002V12.9881V12.9761V12.9641V12.9521V12.9401V12.9282V12.9163V12.9044V12.8926V12.8807V12.8689V12.8572V12.8525V12.8477V12.843V12.8382V12.8335V12.8287V12.8239V12.8191V12.8143V12.8095V12.8047V12.7999V12.7951V12.7903V12.7854V12.7806V12.7757V12.7708V12.766V12.761V12.7561V12.7512V12.7463V12.7414V12.7364V12.7315V12.7266V12.7216V12.7166V12.7116V12.7067V12.7016V12.6966V12.6917V12.6866V12.6816V12.6766V12.6715V12.6665V12.6614V12.6564V12.6512V12.6462V12.6412V12.636V12.631V12.6258V12.6208V12.6156V12.6104V12.6054V12.6002V12.5951V12.5899V12.5848V12.5796V12.5744V12.5693V12.5641V12.5588V12.5537V12.5485V12.5434V12.5381V12.5329V12.5276V12.5225V12.5172V12.5119V12.5068V12.5015V12.4962V12.491V12.4858V12.4805V12.4752V12.4699V12.4646V12.4594V12.4541V12.4488V12.4435V12.4382V12.4328V12.4276V12.4223V12.417V12.4116V12.4063V12.401V12.3956V12.3904V12.385V12.3797V12.3743V12.369V12.3636V12.3583V12.3529V12.3475V12.3422V12.3368V12.3314V12.3262V12.3208V12.3154V12.31V12.3047V12.2993V12.2939V12.2885V12.2831V12.2777V12.2724V12.267V12.2616V12.2562V12.2508V12.2454V12.24V12.2346V12.2292V12.2238V12.2184V12.213V12.2076V12.2022V12.1968V12.1914V12.186V12.1806V12.1752V12.1698V12.1644V12.159V12.1536V12.1482V12.1428V12.1374V12.132V12.1266V12.1211V12.1157V12.1103V12.1049V12.0995V12.0941V12.0887V12.0833V12.0779V12.0725V12.0672V12.0618V12.0564V12.051V12.0456V12.0402V12.0348V12.0294V12.024V12.0186V12.0133V12.0079V12.0025V11.9971V11.9918V11.9864V11.981V11.9756V11.9704V11.965V11.9596V11.9543V11.9489V11.9436V11.9382V11.9329V11.9275V11.9222V11.9168V11.9116V11.9063V11.9009V11.8956V11.8903V11.8849V11.8796V11.8744V11.8691V11.8638V11.8585V11.8532V11.848V11.8427V11.8374V11.8321V11.8268V11.8216V11.8164V11.8111V11.8058V11.8006V11.7954V11.7901V11.785V11.7797V11.7745V11.7692V11.7641V11.7589V11.7538V11.7485V11.7433V11.7382V11.733V11.7278V11.7227V11.7175V11.7124V11.7073V11.7022V11.697V11.692V11.6868V11.6816V11.6766V11.6716V11.6664V11.6614V11.6563V11.6513V11.6462V11.6411V11.636V11.6311V11.6261V11.621V11.616V11.6111V11.606V11.601V11.5961V11.5912V11.5861V11.5812V11.5763V11.5714V11.5664V11.5615V11.5566V11.5517V11.5468V11.542V11.537V11.5321V11.5273V11.5225V11.5176V11.5128V11.508V11.5032V11.4984V11.4936V11.4888V11.484V11.4793V11.4745V11.4698V11.465V11.4604V11.4557V11.4509V11.4462V11.4415V11.437V11.4323V11.4276V11.4229V11.4184V11.4137V11.4091V11.4046V11.4V11.3954V11.3909V11.3863V11.3818V11.3772V11.3728V11.3682V11.3638V11.3593V11.3548V11.3503V11.3459V11.3414V11.3371V11.3327V11.3282V11.3239V11.3195V11.3152V11.3108V11.3065V11.3022V11.2979V11.2936V11.2894V11.285V11.2808V11.2765V11.2723V11.2681V11.2639V11.2597V11.2556V11.2514V11.2474V11.2432V11.2391V11.235V11.2309V11.2268V11.2228V11.2187V11.2147V11.2106V11.2067V11.2027V11.1988V11.1948V11.1908V11.1869V11.183V11.1791V11.1752V11.1714V11.1676V11.1637V11.1599V11.156V11.1523V11.1485V11.1448V11.141V11.1373V11.1336V11.1299V11.1263V11.1226V11.119V11.1154V11.1118V11.1082V11.1046V11.101V11.0975V11.0939V11.0904V11.0869V11.0834V11.08V11.0766V11.0731V11.0698V11.0663V11.0629V11.0596V11.0563V11.053V11.0497V11.0464V11.0431V11.0399V11.0366V11.0334V11.0303V11.027V11.0239V11.0208V11.0177V11.0146V11.0116V11.0084V11.0054V11.0024V10.9994V10.9964V10.9934V10.9906V10.9876V10.9847V10.9818V10.9789V10.976V10.9733V10.9704V10.9676V10.9649V10.9621V10.9595V10.9567V10.9541V10.9513V10.9487V10.946V10.9435V10.9409V10.9384V10.9358V10.9333V10.9308V10.9283V10.9259V10.9234V10.921V10.9186V10.9163V10.9139V10.9116V10.9092V10.9069V10.9048V10.9025V10.9002V10.898V10.8959V10.8937V10.8916V10.8895V10.8874V10.8853V10.8833V10.8812V10.8793V10.8773V10.8754V10.8734V10.8715V10.8696V10.8678V10.866V10.8642V10.8624V10.8606V10.8588V10.8571V10.8554V10.8538V10.8521V10.8505V10.849V10.8473V10.8458V10.8443V10.8427V10.8413V10.8398V10.8384V10.837V10.8356V10.8343V10.833V10.8317V10.8304V10.8292V10.8278V10.8266V10.8244V10.8222V10.82V10.818V10.8161V10.8143V10.8126V10.8109V10.8095V10.808V10.8062V10.805V10.8036V10.8024V10.801C10.8 10.1382 11.3372 9.6 12 9.6Z" fill="#9C9C9C"/>
</svg>
