<svg viewBox="0 0 24 24" fill="none" xmlns="http://www.w3.org/2000/svg">
<g clip-path="url(#clip0_9_77)">
<path d="M12 0.300015C9.14172 0.287304 6.37274 1.29529 4.19149 3.14255C2.01025 4.9898 0.560023 7.55499 0.101849 10.3764C-0.356325 13.1978 0.207647 16.09 1.69225 18.5326C3.17686 20.9752 5.48458 22.8076 8.20004 23.7C8.80005 23.8 9.00004 23.4 9.00004 23.1V21.1C5.70004 21.8 5.00004 19.5 5.00004 19.5C4.40004 18.1 3.60004 17.7 3.60004 17.7C2.60004 17 3.70004 17 3.70004 17C4.90004 17 5.60004 18.2 5.60004 18.2C6.60004 20 8.40005 19.5 9.10005 19.2C9.10005 18.4 9.50004 17.9 9.80005 17.6C7.10005 17.3 4.30004 16.3 4.30004 11.6C4.30004 10.4 4.80004 9.30002 5.60004 8.50002C5.40004 8.10002 5.00004 6.90001 5.60004 5.30001C5.60004 5.30001 6.60004 5.00001 9.00004 6.50001C10.9648 5.96908 13.0353 5.96908 15 6.50001C17.3 5.00001 18.3 5.30001 18.3 5.30001C18.9 6.90001 18.5 8.10002 18.3 8.50002C19.2 9.30002 19.6 10.4 19.6 11.7C19.6 16.3 16.8 17.3 14.1 17.6C14.6 18 15 18.6 15 19.8V23.1C15 23.4 15.1 23.8 15.8 23.7C18.5155 22.8076 20.8232 20.9752 22.3078 18.5326C23.7924 16.09 24.3564 13.1978 23.8982 10.3764C23.4401 7.55499 21.9898 4.9898 19.8086 3.14255C17.6274 1.29529 14.8584 0.287304 12 0.300015Z" fill="#9C9C9C"/>
</g>
<defs>
<clipPath id="clip0_9_77">
<rect width="24" height="24" fill="white"/>
</clipPath>
</defs>
</svg>
