<svg width="24" height="24" viewBox="0 0 24 24" fill="none" xmlns="http://www.w3.org/2000/svg">
<g clip-path="url(#clip0_1_110)">
<path d="M12 0.300046C9.14168 0.287335 6.37269 1.29532 4.19145 3.14258C2.01021 4.98983 0.559978 7.55502 0.101803 10.3764C-0.356371 13.1978 0.207602 16.0901 1.69221 18.5326C3.17681 20.9752 5.48454 22.8076 8.2 23.7C8.8 23.8 9 23.4 9 23.1V21.1C5.7 21.8 5 19.5 5 19.5C4.4 18.1 3.6 17.7 3.6 17.7C2.6 17 3.7 17 3.7 17C4.9 17 5.6 18.2 5.6 18.2C6.6 20 8.4 19.5 9.1 19.2C9.1 18.4 9.5 17.9 9.8 17.6C7.1 17.3 4.3 16.3 4.3 11.6C4.3 10.4 4.8 9.30005 5.6 8.50005C5.4 8.10005 5 6.90005 5.6 5.30005C5.6 5.30005 6.6 5.00005 9 6.50005C10.9648 5.96911 13.0352 5.96911 15 6.50005C17.3 5.00005 18.3 5.30005 18.3 5.30005C18.9 6.90005 18.5 8.10005 18.3 8.50005C19.2 9.30005 19.6 10.4 19.6 11.7C19.6 16.3 16.8 17.3 14.1 17.6C14.6 18 15 18.6 15 19.8V23.1C15 23.4 15.1 23.8 15.8 23.7C18.5155 22.8076 20.8232 20.9752 22.3078 18.5326C23.7924 16.0901 24.3564 13.1978 23.8982 10.3764C23.44 7.55502 21.9898 4.98983 19.8085 3.14258C17.6273 1.29532 14.8583 0.287335 12 0.300046Z" fill="#4A4B4A"/>
</g>
<defs>
<clipPath id="clip0_1_110">
<rect width="24" height="24" fill="white"/>
</clipPath>
</defs>
</svg>
