<svg width="40" height="38" viewBox="0 0 40 38" fill="none" xmlns="http://www.w3.org/2000/svg">
<path d="M11.2667 7.66332L8.26669 4.82915L5.91669 7.06165L8.90002 9.89582L11.2667 7.66332ZM1.66669 16.625H6.66669V19.7916H1.66669V16.625ZM18.3334 0.870819H21.6667V5.54165H18.3334V0.870819ZM31.7334 4.82124L34.08 7.04899L31.0967 9.88315L28.7517 7.65382L31.7334 4.82124ZM28.7334 28.7533L31.7167 31.6033L34.0667 29.3708L31.0667 26.5367L28.7334 28.7533ZM33.3334 16.625H38.3334V19.7916H33.3334V16.625ZM20 8.70832C14.4834 8.70832 10 12.9675 10 18.2083C10 23.4491 14.4834 27.7083 20 27.7083C25.5167 27.7083 30 23.4491 30 18.2083C30 12.9675 25.5167 8.70832 20 8.70832ZM20 24.5416C16.3167 24.5416 13.3334 21.7075 13.3334 18.2083C13.3334 14.7092 16.3167 11.875 20 11.875C23.6834 11.875 26.6667 14.7092 26.6667 18.2083C26.6667 21.7075 23.6834 24.5416 20 24.5416ZM18.3334 30.875H21.6667V35.5458H18.3334V30.875ZM5.91669 29.355L8.26669 31.5875L11.25 28.7375L8.90002 26.505L5.91669 29.355Z" fill="black"/>
</svg>
