<svg viewBox="0 0 30 23" fill="none" xmlns="http://www.w3.org/2000/svg">
<path d="M23.9632 13.9433C24.763 14.4292 24.9272 14.8287 24.5048 15.5127C24.3705 15.7301 24.0379 15.8588 23.774 15.9204C23.4819 15.9886 23.1645 15.9333 22.7795 15.8839C20.5318 15.8302 18.3627 15.8225 16.1936 15.8243C16.0873 15.8244 15.9812 15.9089 15.8749 15.954C15.6314 16.2688 15.5318 16.5959 15.869 17.012C17.0443 17.0709 18.1506 17.0721 19.2569 17.0733C19.5314 17.086 19.8463 17.0099 20.0732 17.1274C20.9054 17.5585 20.8489 18.4922 20.0281 18.8419C19.1256 18.8414 18.3136 18.8393 17.5021 18.8587C17.0223 18.8701 16.5432 18.9156 16.0639 18.9457C15.5722 19.4963 15.6917 19.9667 16.3791 20.1486C16.5848 20.203 16.8004 20.2232 17.0127 20.2379C17.2269 20.2527 17.4426 20.2411 17.6769 20.2411C16.6161 21.9798 11.3649 23.2751 8.8822 22.6665C3.04742 21.2363 0.753281 16.7605 0.186638 13.4784C-0.371121 10.2478 0.330606 7.20165 2.16619 4.53597C3.5764 2.48802 5.54233 1.21443 7.78012 0.450911C11.6356 -0.864562 16.3134 0.931393 17.8735 2.84284C17.2415 2.84284 16.6572 2.84284 16.0442 2.84284C15.9394 3.24868 15.8476 3.6047 15.7357 4.0384C16.8401 4.0384 17.8889 4.02512 18.9372 4.04187C20.1622 4.06144 19.8775 3.83827 20.2314 5.08036C20.2638 5.40346 20.3061 5.63177 20.3483 5.86009C20.3483 5.86009 20.341 5.85649 20.3183 5.90284C20.3162 5.97983 20.3368 6.01047 20.3574 6.0411C20.3574 6.0411 20.3572 6.03044 20.3129 6.01003C18.6637 6.00205 17.0589 6.01107 15.4542 6.0311C15.246 6.0337 15.0384 6.09316 14.8306 6.12629C14.817 6.45673 14.8034 6.78717 14.8365 7.19652C15.8316 7.28006 16.7802 7.2847 17.7794 7.29825C19.7204 7.3136 21.6107 7.32003 23.501 7.32646C24.36 7.83808 24.3415 8.67439 23.4055 9.16596C21.3027 9.16239 19.2887 9.16542 17.2749 9.18031C17.134 9.18135 16.9938 9.27017 16.8532 9.31817C16.849 9.56545 16.8449 9.81274 16.7664 10.0983C16.6236 10.2773 16.555 10.4179 16.4699 10.5925C17.4927 10.5925 18.4857 10.5925 19.4635 10.6279C18.7482 10.9571 18.9801 11.4993 19.1872 11.9345C18.8853 12.0824 18.66 12.1928 18.4346 12.3033C18.5319 12.4241 18.6292 12.5449 18.7514 12.6687C18.7763 12.6716 18.8234 12.6898 18.8234 12.6898C18.8234 12.728 18.8234 12.7662 18.8234 12.8044C18.8232 14.0658 18.9591 14.1743 20.2394 13.8962C21.5329 13.928 22.7481 13.9356 23.9632 13.9433ZM8.45539 7.10824C8.61514 7.75026 8.76436 8.39557 8.93858 9.03309C9.04332 9.41639 9.28762 9.50546 9.59011 9.26444C9.91865 9.00265 10.2286 8.71433 10.5919 8.39824C9.73366 7.12777 8.90807 5.9057 8.08248 4.68363C8.0597 4.69142 8.03692 4.69921 8.01414 4.707C8.15994 5.47344 8.30575 6.23989 8.45539 7.10824ZM11.3785 10.269C11.2718 10.2525 11.1585 10.2552 11.0596 10.2162C10.587 10.0298 10.2195 10.2566 9.92649 10.5965C9.59865 10.9769 9.54323 11.4332 9.78611 11.9109C10.0112 12.3536 10.3056 12.6754 10.817 12.6683C11.2486 12.6623 11.8064 12.2226 11.9617 11.7653C12.1029 11.3496 11.8604 10.6833 11.3785 10.269ZM5.1951 4.28279C5.08717 4.28407 4.97095 4.25771 4.87272 4.2913C4.39004 4.45635 4.48788 4.91101 4.55109 5.25168C4.58259 5.42148 4.96596 5.69002 5.0667 5.63855C5.33456 5.50169 5.62967 5.25212 5.72513 4.97362C5.7769 4.82261 5.44317 4.52103 5.1951 4.28279ZM5.59718 18.318C5.67462 18.173 5.75206 18.028 5.82591 17.8897C5.43464 17.3321 4.9473 17.123 4.71801 17.4671C4.56781 17.6925 4.51032 18.1667 4.63482 18.3827C4.85048 18.7568 5.23564 18.7245 5.59718 18.318ZM10.9445 1.80231C10.8571 1.82253 10.7216 1.81261 10.6909 1.86841C10.5803 2.06898 10.4108 2.30796 10.44 2.5021C10.4783 2.75565 10.6483 3.0277 10.8375 3.19246C10.9064 3.25244 11.2251 3.06553 11.3744 2.92448C11.7475 2.57221 11.5415 1.94115 10.9445 1.80231ZM1.68546 11.4356C1.67096 11.7742 1.73889 12.1145 2.12104 12.062C2.54582 12.0036 2.91609 11.7367 2.7759 11.2C2.72191 10.9933 2.44273 10.7606 2.23201 10.7134C1.8194 10.621 1.65897 10.9183 1.68546 11.4356ZM10.5325 19.8223C10.5325 20.183 10.5325 20.5437 10.5325 20.9836C10.8961 20.9087 11.1959 20.847 11.4941 20.7857C11.4941 20.4078 11.4941 20.0843 11.4941 19.7318C11.1717 19.7318 10.8629 19.7318 10.5325 19.8223Z" fill="#03045E"/>
<path d="M15.9253 15.9433C15.9811 15.9089 16.0873 15.8244 16.1936 15.8244C18.3627 15.8225 20.5318 15.8302 22.7301 15.8754C20.498 15.9207 18.2368 15.9267 15.9253 15.9433Z" fill="#F9DCDA"/>
<path d="M29.0691 10.5498C27.0328 10.5936 24.9971 10.5815 22.9615 10.5747C21.8343 10.5709 20.7072 10.5759 19.5293 10.5848C18.4856 10.5925 17.4927 10.5925 16.4698 10.5925C16.555 10.4179 16.6236 10.2773 16.7292 10.1218C16.6619 10.4871 16.8969 10.4583 17.1263 10.4574C18.0904 10.4533 19.0544 10.4554 20.0185 10.4555C22.856 10.4556 25.6935 10.4551 28.5311 10.4577C28.7107 10.4579 28.8902 10.4827 29.0691 10.5498Z" fill="#F9DCDA"/>
<path d="M14.8777 6.13109C15.0384 6.09311 15.246 6.03365 15.4542 6.03104C17.0589 6.01101 18.6637 6.002 20.3179 6.00997C20.2396 6.06828 20.112 6.13881 19.9843 6.13916C18.2979 6.14385 16.6114 6.13867 14.8777 6.13109Z" fill="#F9E4E2"/>
<path d="M16.9036 9.30554C16.9937 9.27016 17.134 9.18135 17.2748 9.1803C19.2887 9.16542 21.3026 9.16238 23.3668 9.17063C23.2533 9.21977 23.0898 9.28456 22.926 9.28522C20.9354 9.29326 18.9447 9.29186 16.9036 9.30554Z" fill="#F9E4E2"/>
<path d="M23.9399 13.8985C22.7481 13.9356 21.5329 13.928 20.2845 13.8878C21.473 13.8548 22.6948 13.8543 23.9399 13.8985Z" fill="#F6B9B3"/>
<path d="M23.4962 7.27421C21.6107 7.32003 19.7204 7.31361 17.7788 7.27921C17.7275 7.25124 17.7275 7.21313 17.7275 7.21313C19.6488 7.21608 21.5701 7.21902 23.4962 7.27421Z" fill="#F9E4E2"/>
<path d="M16.1174 18.9514C16.5432 18.9156 17.0223 18.8701 17.502 18.8587C18.3136 18.8393 19.1256 18.8414 19.9892 18.842C19.8957 18.8867 19.7505 18.9554 19.605 18.9563C18.4604 18.9638 17.3157 18.9584 16.1174 18.9514Z" fill="#F9DCDA"/>
<path d="M8.45345 7.05725C8.30573 6.23985 8.15992 5.47341 8.01412 4.70696C8.0369 4.69917 8.05968 4.69138 8.08246 4.68359C8.90805 5.90567 9.73364 7.12774 10.5919 8.3982C10.2286 8.71429 9.91864 9.00261 9.59009 9.2644C9.2876 9.50542 9.04331 9.41635 8.93856 9.03305C8.76435 8.39553 8.61512 7.75023 8.45345 7.05725Z" fill="white"/>
<path d="M19.2291 17.0339C18.1506 17.0721 17.0442 17.0709 15.904 17.0359C16.9805 16.9994 18.0909 16.9969 19.2291 17.0339Z" fill="#F9DCDA"/>
<path d="M17.6772 7.20475C17.7275 7.21318 17.7275 7.25129 17.7281 7.27034C16.7801 7.28475 15.8316 7.28011 14.8541 7.24118C15.7591 7.20336 16.693 7.19983 17.6772 7.20475Z" fill="#FCFDFC"/>
<path d="M11.4094 10.3007C11.8604 10.6833 12.1029 11.3496 11.9617 11.7653C11.8064 12.2226 11.2487 12.6623 10.817 12.6683C10.3057 12.6754 10.0112 12.3536 9.78614 11.9109C9.54325 11.4331 9.59868 10.9768 9.92651 10.5965C10.2195 10.2566 10.587 10.0298 11.0596 10.2162C11.1585 10.2552 11.2719 10.2525 11.4094 10.3007Z" fill="white"/>
<path d="M10.9773 1.77686C11.5415 1.9411 11.7475 2.57215 11.3744 2.92442C11.225 3.06547 10.9064 3.25238 10.8375 3.19241C10.6483 3.02765 10.4782 2.75559 10.44 2.50204C10.4107 2.30791 10.5803 2.06892 10.6909 1.86835C10.7216 1.81255 10.857 1.82248 10.9773 1.77686Z" fill="white"/>
<path d="M5.57021 18.3524C5.2356 18.7245 4.85045 18.7568 4.63479 18.3827C4.51029 18.1667 4.56777 17.6925 4.71797 17.4671C4.94727 17.123 5.43461 17.3321 5.82588 17.8897C5.75203 18.028 5.67459 18.173 5.57021 18.3524Z" fill="white"/>
<path d="M5.23919 4.28508C5.44315 4.52103 5.77688 4.82261 5.72511 4.97362C5.62964 5.25211 5.33454 5.50169 5.06667 5.63855C4.96594 5.69002 4.58257 5.42148 4.55106 5.25168C4.48786 4.91101 4.39002 4.45635 4.8727 4.2913C4.97093 4.25771 5.08715 4.28406 5.23919 4.28508Z" fill="white"/>
<path d="M10.5432 19.777C10.8628 19.7318 11.1717 19.7318 11.494 19.7318C11.494 20.0843 11.494 20.4078 11.494 20.7857C11.1959 20.847 10.896 20.9087 10.5324 20.9835C10.5324 20.5437 10.5324 20.183 10.5432 19.777Z" fill="white"/>
<path d="M1.68607 11.3868C1.65895 10.9183 1.81938 10.621 2.23198 10.7134C2.4427 10.7606 2.72188 10.9933 2.77588 11.2C2.91607 11.7367 2.5458 12.0037 2.12102 12.062C1.73887 12.1145 1.67094 11.7742 1.68607 11.3868Z" fill="white"/>
<path d="M23.0645 4.16358C23.3152 4.16224 23.5158 4.17155 23.7149 4.15753C24.2426 4.1204 24.6675 4.47153 24.7178 4.99726C24.7666 5.50717 24.346 6.11422 23.8706 6.13744C23.1994 6.17023 22.525 6.16746 21.8536 6.13799C21.4202 6.11897 20.8639 5.4423 20.8964 5.04209C20.9447 4.44762 21.3472 4.12751 21.9777 4.15944C22.3223 4.17689 22.6682 4.16322 23.0645 4.16358Z" fill="#03045E"/>
<path d="M18.7513 12.6687C18.9051 12.6246 19.0837 12.548 19.2625 12.5476C22.5052 12.5403 25.748 12.5423 29.0409 12.555C28.908 12.602 28.7248 12.6657 28.5416 12.6661C25.3359 12.6726 22.1303 12.6714 18.874 12.6808C18.8233 12.6898 18.7762 12.6716 18.7513 12.6687Z" fill="#FCFDFC"/>
<path d="M27.3327 17.0364C28.0934 17.5311 28.2566 17.92 27.8693 18.4973C27.717 18.7243 27.3931 18.9086 27.1283 18.9423C26.5911 19.0108 26.0396 18.9894 25.4964 18.9571C24.8227 18.9171 24.3765 17.9844 24.7399 17.3856C24.8302 17.2368 25.0129 17.0675 25.1617 17.0579C25.872 17.0123 26.5852 17.0184 27.3327 17.0364Z" fill="#03045E"/>
<path d="M18.7264 12.6656C18.6291 12.5448 18.5319 12.424 18.4346 12.3032C18.6599 12.1928 18.8853 12.0823 19.1871 11.9344C18.9801 11.4993 18.7482 10.9571 19.5142 10.6201C20.7072 10.5759 21.8344 10.5708 22.9615 10.5746C24.9972 10.5815 27.0328 10.5936 29.0684 10.6035C29.3293 10.8785 29.7237 11.1089 29.8205 11.4388C29.9723 11.9561 29.6727 12.3683 29.081 12.5484C25.748 12.5422 22.5052 12.5403 19.2625 12.5476C19.0837 12.548 18.9051 12.6245 18.7264 12.6656Z" fill="#03045E"/>
</svg>
