<svg viewBox="0 0 18 17" fill="none" xmlns="http://www.w3.org/2000/svg">
<path d="M6.75 8.32294C6.2325 8.32294 5.8125 8.7196 5.8125 9.20835C5.8125 9.6971 6.2325 10.0938 6.75 10.0938C7.2675 10.0938 7.6875 9.6971 7.6875 9.20835C7.6875 8.7196 7.2675 8.32294 6.75 8.32294ZM11.25 8.32294C10.7325 8.32294 10.3125 8.7196 10.3125 9.20835C10.3125 9.6971 10.7325 10.0938 11.25 10.0938C11.7675 10.0938 12.1875 9.6971 12.1875 9.20835C12.1875 8.7196 11.7675 8.32294 11.25 8.32294ZM9 1.41669C4.86 1.41669 1.5 4.59002 1.5 8.50002C1.5 12.41 4.86 15.5834 9 15.5834C13.14 15.5834 16.5 12.41 16.5 8.50002C16.5 4.59002 13.14 1.41669 9 1.41669ZM9 14.1667C5.6925 14.1667 3 11.6238 3 8.50002C3 8.2946 3.015 8.08919 3.0375 7.89085C4.8075 7.1471 6.21 5.78002 6.945 4.0871C8.3025 5.90044 10.5375 7.08335 13.065 7.08335C13.65 7.08335 14.2125 7.0196 14.7525 6.89919C14.91 7.4021 15 7.94044 15 8.50002C15 11.6238 12.3075 14.1667 9 14.1667Z" fill="black"/>
</svg>
