<svg width="37" height="27" viewBox="0 0 37 27" fill="none" xmlns="http://www.w3.org/2000/svg">
<path d="M33.9166 6.41249L26.825 2.02499L24.8208 3.71249L31.9125 8.09999L33.9166 6.41249ZM12.1791 3.82499L10.175 2.13749L3.08331 6.41249L5.08748 8.09999L12.1791 3.82499ZM19.2708 8.99999H16.9583V15.75L24.2041 19.0125L25.4375 17.6625L19.2708 14.9625V8.99999ZM18.5 4.49999C10.7916 4.49999 4.62498 8.99999 4.62498 14.625C4.62498 20.25 10.7916 24.75 18.5 24.75C26.2083 24.75 32.375 20.25 32.375 14.625C32.375 8.99999 26.2083 4.49999 18.5 4.49999ZM18.5 22.5C12.4875 22.5 7.70831 19.0125 7.70831 14.625C7.70831 10.2375 12.4875 6.74999 18.5 6.74999C24.5125 6.74999 29.2916 10.2375 29.2916 14.625C29.2916 19.0125 24.5125 22.5 18.5 22.5Z" fill="black"/>
</svg>
